{"title":"Dream.House.2011.720p.Bluray.x264.anoXmous","uid":6909676,"size":733636768,"categoryP":"video","categoryS":"hd___movies","magnet":"?xt=urn:btih:08580dc6007da7fddbe15d0b5d7a7f67e6e7747d&amp;dn=Dream.House.2011.720p.Bluray.x264.anoXmous&amp;tr=udp%3A%2F%2Ftracker.openbittorrent.com%3A80&amp;tr=udp%3A%2F%2Fopen.demonii.com%3A1337&amp;tr=udp%3A%2F%2Ftracker.coppersurfer.tk%3A6969&amp;tr=udp%3A%2F%2Fexodus.desync.com%3A6969","seeders":0,"leechers":1,"uploader":"anoXmous","files":-1,"time":1324738164,"description":"Dream.House.2011.720p.Bluray.x264.anoXmous\n\nFormat                           : MPEG-4\nFormat profile                   : Base Media\nCodec ID                         : isom\nFile size                        : 700 MiB\nDuration                         : 1h 30mn\nOverall bit rate mode            : Variable\nOverall bit rate                 : 1 077 Kbps\n\n\nVideo\nID                               : 1\nFormat                           : AVC\nFormat/Info                      : Advanced Video Codec\nFormat profile                   : &lt;a class=&quot;__cf_email__&quot; href=&quot;/cdn-cgi/l/email-protection&quot; data-cfemail=&quot;024a6b656a424e362c33&quot;&gt;[email&amp;#160;protected]&lt;/a&gt;&lt;script cf-hash='f9e31' type=&quot;text/javascript&quot;&gt;\n/* &lt;![CDATA[ */!function(){try{var t=&quot;currentScript&quot;in document?document.currentScript:function(){for(var t=document.getElementsByTagName(&quot;script&quot;),e=t.length;e--;)if(t[e].getAttribute(&quot;cf-hash&quot;))return t[e]}();if(t&amp;&amp;t.previousSibling){var e,r,n,i,c=t.previousSibling,a=c.getAttribute(&quot;data-cfemail&quot;);if(a){for(e=&quot;&quot;,r=parseInt(a.substr(0,2),16),n=2;a.length-n;n+=2)i=parseInt(a.substr(n,2),16)^r,e+=String.fromCharCode(i);e=document.createTextNode(e),c.parentNode.replaceChild(e,c)}}}catch(u){}}();/* ]]&gt; */&lt;/script&gt;\nFormat settings, CABAC           : Yes\nFormat settings, ReFrames        : 4 frames\nCodec ID                         : avc1\nCodec ID/Info                    : Advanced Video Coding\nDuration                         : 1h 30mn\nBit rate                         : 1 004 Kbps\nMaximum bit rate                 : 5 853 Kbps\nWidth                            : 1 280 pixels\nHeight                           : 544 pixels\nDisplay aspect ratio             : 2.35:1\nOriginal display aspect ratio    : 2.35:1\nFrame rate mode                  : Constant\nFrame rate                       : 23.976 fps\nColor space                      : YUV\nChroma subsampling               : 4:2:0\nBit depth                        : 8 bits\nScan type                        : Progressive\nBits/(Pixel*Frame)               : 0.060\nStream size                      : 652 MiB (93%)\nWriting library                  : x264 core 120 r2120 0c7dab9\n\n\nAudio\nID                               : 2\nFormat                           : AAC\nFormat/Info                      : Advanced Audio Codec\nFormat profile                   : LC\nCodec ID                         : 40\nDuration                         : 1h 30mn\nBit rate mode                    : Variable\nBit rate                         : 70.5 Kbps\nMaximum bit rate                 : 95.3 Kbps\nChannel(s)                       : 2 channels\nChannel positions                : Front: L R\nSampling rate                    : 48.0 KHz\nCompression mode                 : Lossy\nStream size                      : 45.8 MiB (7%)\nLanguage                         : English\n\n                              SUB:\n       Dream.House.2011.720p.Bluray.x264.anoXmous_swe.srt\n\n             &lt;a href=&quot; http://www.imdb.com/title/tt1462041/&quot; rel=&quot;nofollow&quot; target=&quot;_NEW&quot;&gt; http://www.imdb.com/title/tt1462041/&lt;/a&gt;\n\n+++++++++ This work very fine with PSP and XBOX :) ++++++++++","torrent":{"xt":"urn:btih:08580dc6007da7fddbe15d0b5d7a7f67e6e7747d","amp;dn":"Dream.House.2011.720p.Bluray.x264.anoXmous","amp;tr":["udp%3A%2F%2Ftracker.openbittorrent.com%3A80","udp%3A%2F%2Fopen.demonii.com%3A1337","udp%3A%2F%2Ftracker.coppersurfer.tk%3A6969","udp%3A%2F%2Fexodus.desync.com%3A6969"],"infoHash":"08580dc6007da7fddbe15d0b5d7a7f67e6e7747d","infoHashBuffer":{"type":"Buffer","data":[8,88,13,198,0,125,167,253,219,225,93,11,93,122,127,103,230,231,116,125]},"announce":[],"urlList":[]}}